<?xml version="1.0" encoding="UTF-8" standalone="no"?>
<!-- Generator: Adobe Illustrator 19.0.0, SVG Export Plug-In . SVG Version: 6.00 Build 0)  -->

<svg
   xmlns:dc="http://purl.org/dc/elements/1.1/"
   xmlns:cc="http://creativecommons.org/ns#"
   xmlns:rdf="http://www.w3.org/1999/02/22-rdf-syntax-ns#"
   xmlns:svg="http://www.w3.org/2000/svg"
   xmlns="http://www.w3.org/2000/svg"
   xmlns:sodipodi="http://sodipodi.sourceforge.net/DTD/sodipodi-0.dtd"
   xmlns:inkscape="http://www.inkscape.org/namespaces/inkscape"
   version="1.1"
   id="Capa_1"
   x="0px"
   y="0px"
   viewBox="0 0 24 24"
   xml:space="preserve"
   sodipodi:docname="bodyweight.svg"
   width="24"
   height="24"
   inkscape:version="0.92.4 (5da689c313, 2019-01-14)"><metadata
   id="metadata229"><rdf:RDF><cc:Work
       rdf:about=""><dc:format>image/svg+xml</dc:format><dc:type
         rdf:resource="http://purl.org/dc/dcmitype/StillImage" /><dc:title></dc:title></cc:Work></rdf:RDF></metadata><defs
   id="defs227" /><sodipodi:namedview
   pagecolor="#ffffff"
   bordercolor="#666666"
   borderopacity="1"
   objecttolerance="10"
   gridtolerance="10"
   guidetolerance="10"
   inkscape:pageopacity="0"
   inkscape:pageshadow="2"
   inkscape:window-width="1600"
   inkscape:window-height="837"
   id="namedview225"
   showgrid="false"
   inkscape:zoom="11.125147"
   inkscape:cx="12.989462"
   inkscape:cy="16.021333"
   inkscape:window-x="1592"
   inkscape:window-y="-8"
   inkscape:window-maximized="1"
   inkscape:current-layer="Capa_1" />
<g
   id="g6"
   transform="matrix(0.04833328,0,0,0.04833328,0.53931873,0.44048761)">
	<g
   id="g4">
		<path
   d="M 424,40 H 339.4 C 283.864,-13.334 196.135,-13.334 140.6,40 H 56 C 25.087,40.035 0.035,65.087 0,96 v 328 c 0.035,30.913 25.087,55.965 56,56 h 368 c 30.913,-0.035 55.965,-25.087 56,-56 V 96 C 479.965,65.087 454.913,40.035 424,40 Z M 149.629,53.334 C 173.625,29.42 206.123,15.995 240,16 c 34.039,-0.086 66.692,13.474 90.656,37.648 h -0.008 c 49.9,50.074 49.759,131.119 -0.315,181.019 -50.074,49.9 -131.119,49.759 -181.019,-0.315 -49.9,-50.074 -49.759,-131.119 0.315,-181.018 z M 464,424 c -0.026,22.08 -17.92,39.974 -40,40 H 56 C 33.92,463.974 16.026,446.08 16,424 V 96 C 16.026,73.92 33.92,56.026 56,56 h 70 c -1.464,1.896 -2.784,3.88 -4.152,5.84 -0.728,1.04 -1.512,2.048 -2.208,3.104 -2.4,3.632 -4.632,7.344 -6.672,11.152 -0.376,0.688 -0.672,1.416 -1.032,2.112 -1.6,3.16 -3.2,6.4 -4.544,9.6 -0.584,1.376 -1.088,2.792 -1.6,4.184 -1.032,2.664 -2.016,5.344 -2.88,8.072 -0.504,1.6 -0.96,3.144 -1.408,4.728 -0.741,2.667 -1.411,5.357 -2.008,8.072 -0.352,1.6 -0.704,3.2 -1,4.8 -0.544,2.928 -0.952,5.88 -1.304,8.856 -0.176,1.4 -0.392,2.784 -0.52,4.2 -0.4,4.384 -0.648,8.8 -0.648,13.256 0.018,79.529 64.504,143.985 144.033,143.967 79.503,-0.018 143.949,-64.464 143.967,-143.967 0,-4.456 -0.248,-8.872 -0.648,-13.248 -0.128,-1.424 -0.352,-2.816 -0.52,-4.224 -0.36,-2.968 -0.8,-5.92 -1.304,-8.84 -0.296,-1.6 -0.648,-3.2 -1,-4.8 -0.592,-2.715 -1.261,-5.4 -2.008,-8.056 -0.448,-1.6 -0.904,-3.2 -1.408,-4.752 -0.864,-2.72 -1.84,-5.392 -2.872,-8.048 -0.544,-1.4 -1.048,-2.824 -1.6,-4.208 -1.376,-3.2 -2.896,-6.4 -4.512,-9.552 -0.376,-0.72 -0.68,-1.472 -1.064,-2.192 -2.04,-3.8 -4.272,-7.504 -6.664,-11.12 -0.712,-1.088 -1.512,-2.112 -2.256,-3.2 -1.36,-1.944 -2.664,-3.904 -4.112,-5.784 H 424 c 22.08,0.026 39.974,17.92 40,40 z"
   id="path2"
   inkscape:connector-curvature="0" />
	</g>
</g>
<g
   id="g12"
   transform="translate(0,-456)">
	<g
   id="g10">
		<path
   d="m 240,32 c -61.856,0 -112,50.144 -112,112 0.066,61.828 50.172,111.934 112,112 61.856,0 112,-50.144 112,-112 C 352,82.144 301.856,32 240,32 Z m 73.24,173.928 -16.672,-16.672 -11.312,11.312 16.672,16.672 C 286.725,230.135 267.868,237.951 248,239.592 V 216 h -16 v 23.592 c -19.868,-1.641 -38.725,-9.457 -53.928,-22.352 l 16.672,-16.672 -11.312,-11.312 -16.672,16.672 C 153.865,190.725 146.049,171.868 144.408,152 H 168 v -16 h -23.592 c 1.641,-19.868 9.457,-38.725 22.352,-53.928 L 183.432,98.744 194.744,87.432 178.072,70.76 C 193.275,57.865 212.132,50.05 232,48.409 v 23.592 h 16 V 48.409 c 19.868,1.641 38.725,9.457 53.928,22.352 l -16.672,16.672 11.312,11.312 16.672,-16.672 c 12.895,15.203 20.711,34.06 22.352,53.928 H 312 v 16 h 23.592 c -1.641,19.867 -9.457,38.724 -22.352,53.927 z"
   id="path8"
   inkscape:connector-curvature="0" />
	</g>
</g>
<g
   id="g18"
   transform="translate(0,-456)">
	<g
   id="g16">
		<path
   d="M 248,121.472 V 88.001 h -16 v 33.472 c -12.473,4.393 -19.023,18.066 -14.629,30.539 3.38,9.596 12.455,16.009 22.629,15.989 13.224,0.025 23.964,-10.675 23.989,-23.899 0.02,-10.174 -6.393,-19.25 -15.989,-22.63 z m -8,30.529 c -4.418,0 -8,-3.582 -8,-8 0,-4.418 3.582,-8 8,-8 4.418,0 8,3.582 8,8 0,4.417 -3.582,8 -8,8 z"
   id="path14"
   inkscape:connector-curvature="0" />
	</g>
</g>
<g
   id="g24"
   transform="translate(0,-456)">
	<g
   id="g22">
		<path
   d="m 240,320 c -4.418,0 -8,3.582 -8,8 v 96 c 0,4.418 3.582,8 8,8 4.418,0 8,-3.582 8,-8 v -96 c 0,-4.418 -3.582,-8 -8,-8 z"
   id="path20"
   inkscape:connector-curvature="0" />
	</g>
</g>
<g
   id="g30"
   transform="translate(0,-456)">
	<g
   id="g28">
		<path
   d="m 180,304 c -6.627,0 -12,5.373 -12,12 0,6.627 5.373,12 12,12 6.627,0 12,-5.373 12,-12 0,-6.627 -5.372,-12 -12,-12 z m 0,16 c -2.209,0 -4,-1.791 -4,-4 0,-2.209 1.791,-4 4,-4 2.209,0 4,1.791 4,4 0,2.209 -1.791,4 -4,4 z"
   id="path26"
   inkscape:connector-curvature="0" />
	</g>
</g>
<g
   id="g36"
   transform="translate(0,-456)">
	<g
   id="g34">
		<path
   d="m 180,360 c -6.627,0 -12,5.373 -12,12 0,6.627 5.373,12 12,12 6.627,0 12,-5.373 12,-12 0,-6.627 -5.372,-12 -12,-12 z m 0,16 c -2.209,0 -4,-1.791 -4,-4 0,-2.209 1.791,-4 4,-4 2.209,0 4,1.791 4,4 0,2.209 -1.791,4 -4,4 z"
   id="path32"
   inkscape:connector-curvature="0" />
	</g>
</g>
<g
   id="g42"
   transform="translate(0,-456)">
	<g
   id="g40">
		<path
   d="m 180,416 c -6.627,0 -12,5.373 -12,12 0,6.627 5.373,12 12,12 6.627,0 12,-5.373 12,-12 0,-6.627 -5.372,-12 -12,-12 z m 0,16 c -2.209,0 -4,-1.791 -4,-4 0,-2.209 1.791,-4 4,-4 2.209,0 4,1.791 4,4 0,2.209 -1.791,4 -4,4 z"
   id="path38"
   inkscape:connector-curvature="0" />
	</g>
</g>
<g
   id="g48"
   transform="translate(0,-456)">
	<g
   id="g46">
		<path
   d="m 140,272 c -6.627,0 -12,5.373 -12,12 0,6.627 5.373,12 12,12 6.627,0 12,-5.373 12,-12 0,-6.627 -5.372,-12 -12,-12 z m 0,16 c -2.209,0 -4,-1.791 -4,-4 0,-2.209 1.791,-4 4,-4 2.209,0 4,1.791 4,4 0,2.209 -1.791,4 -4,4 z"
   id="path44"
   inkscape:connector-curvature="0" />
	</g>
</g>
<g
   id="g54"
   transform="translate(0,-456)">
	<g
   id="g52">
		<path
   d="m 140,328 c -6.627,0 -12,5.373 -12,12 0,6.627 5.373,12 12,12 6.627,0 12,-5.373 12,-12 0,-6.627 -5.372,-12 -12,-12 z m 0,16 c -2.209,0 -4,-1.791 -4,-4 0,-2.209 1.791,-4 4,-4 2.209,0 4,1.791 4,4 0,2.209 -1.791,4 -4,4 z"
   id="path50"
   inkscape:connector-curvature="0" />
	</g>
</g>
<g
   id="g60"
   transform="translate(0,-456)">
	<g
   id="g58">
		<path
   d="m 140,384 c -6.627,0 -12,5.373 -12,12 0,6.627 5.373,12 12,12 6.627,0 12,-5.373 12,-12 0,-6.627 -5.372,-12 -12,-12 z m 0,16 c -2.209,0 -4,-1.791 -4,-4 0,-2.209 1.791,-4 4,-4 2.209,0 4,1.791 4,4 0,2.209 -1.791,4 -4,4 z"
   id="path56"
   inkscape:connector-curvature="0" />
	</g>
</g>
<g
   id="g66"
   transform="translate(0,-456)">
	<g
   id="g64">
		<path
   d="m 100,304 c -6.627,0 -12,5.373 -12,12 0,6.627 5.373,12 12,12 6.627,0 12,-5.373 12,-12 0,-6.627 -5.372,-12 -12,-12 z m 0,16 c -2.209,0 -4,-1.791 -4,-4 0,-2.209 1.791,-4 4,-4 2.209,0 4,1.791 4,4 0,2.209 -1.791,4 -4,4 z"
   id="path62"
   inkscape:connector-curvature="0" />
	</g>
</g>
<g
   id="g72"
   transform="translate(0,-456)">
	<g
   id="g70">
		<path
   d="m 100,360 c -6.627,0 -12,5.373 -12,12 0,6.627 5.373,12 12,12 6.627,0 12,-5.373 12,-12 0,-6.627 -5.372,-12 -12,-12 z m 0,16 c -2.209,0 -4,-1.791 -4,-4 0,-2.209 1.791,-4 4,-4 2.209,0 4,1.791 4,4 0,2.209 -1.791,4 -4,4 z"
   id="path68"
   inkscape:connector-curvature="0" />
	</g>
</g>
<g
   id="g78"
   transform="translate(0,-456)">
	<g
   id="g76">
		<path
   d="m 100,416 c -6.627,0 -12,5.373 -12,12 0,6.627 5.373,12 12,12 6.627,0 12,-5.373 12,-12 0,-6.627 -5.372,-12 -12,-12 z m 0,16 c -2.209,0 -4,-1.791 -4,-4 0,-2.209 1.791,-4 4,-4 2.209,0 4,1.791 4,4 0,2.209 -1.791,4 -4,4 z"
   id="path74"
   inkscape:connector-curvature="0" />
	</g>
</g>
<g
   id="g84"
   transform="translate(0,-456)">
	<g
   id="g82">
		<path
   d="m 60,272 c -6.627,0 -12,5.373 -12,12 0,6.627 5.373,12 12,12 6.627,0 12,-5.373 12,-12 0,-6.627 -5.372,-12 -12,-12 z m 0,16 c -2.209,0 -4,-1.791 -4,-4 0,-2.209 1.791,-4 4,-4 2.209,0 4,1.791 4,4 0,2.209 -1.791,4 -4,4 z"
   id="path80"
   inkscape:connector-curvature="0" />
	</g>
</g>
<g
   id="g90"
   transform="translate(0,-456)">
	<g
   id="g88">
		<path
   d="m 60,216.001 c -6.627,0 -12,5.373 -12,12 0,6.627 5.373,12 12,12 6.627,0 12,-5.373 12,-12 0,-6.627 -5.372,-12 -12,-12 z m 0,16 c -2.209,0 -4,-1.791 -4,-4 0,-2.209 1.791,-4 4,-4 2.209,0 4,1.791 4,4 0,2.209 -1.791,4 -4,4 z"
   id="path86"
   inkscape:connector-curvature="0" />
	</g>
</g>
<g
   id="g96"
   transform="translate(0,-456)">
	<g
   id="g94">
		<path
   d="m 60,328 c -6.627,0 -12,5.373 -12,12 0,6.627 5.373,12 12,12 6.627,0 12,-5.373 12,-12 0,-6.627 -5.372,-12 -12,-12 z m 0,16 c -2.209,0 -4,-1.791 -4,-4 0,-2.209 1.791,-4 4,-4 2.209,0 4,1.791 4,4 0,2.209 -1.791,4 -4,4 z"
   id="path92"
   inkscape:connector-curvature="0" />
	</g>
</g>
<g
   id="g102"
   transform="translate(0,-456)">
	<g
   id="g100">
		<path
   d="m 60,384 c -6.627,0 -12,5.373 -12,12 0,6.627 5.373,12 12,12 6.627,0 12,-5.373 12,-12 0,-6.627 -5.372,-12 -12,-12 z m 0,16 c -2.209,0 -4,-1.791 -4,-4 0,-2.209 1.791,-4 4,-4 2.209,0 4,1.791 4,4 0,2.209 -1.791,4 -4,4 z"
   id="path98"
   inkscape:connector-curvature="0" />
	</g>
</g>
<g
   id="g108"
   transform="translate(0,-456)">
	<g
   id="g106">
		<path
   d="m 100,248.001 c -6.627,0 -12,5.373 -12,12 0,6.627 5.373,12 12,12 6.627,0 12,-5.373 12,-12 0,-6.628 -5.372,-12 -12,-12 z M 100,264 c -2.209,0 -4,-1.791 -4,-4 0,-2.209 1.791,-4 4,-4 2.209,0 4,1.791 4,4 0,2.209 -1.791,4 -4,4 z"
   id="path104"
   inkscape:connector-curvature="0" />
	</g>
</g>
<g
   id="g114"
   transform="translate(0,-456)">
	<g
   id="g112">
		<path
   d="m 300,304 c -6.627,0 -12,5.373 -12,12 0,6.627 5.373,12 12,12 6.627,0 12,-5.373 12,-12 0,-6.627 -5.372,-12 -12,-12 z m 0,16 c -2.209,0 -4,-1.791 -4,-4 0,-2.209 1.791,-4 4,-4 2.209,0 4,1.791 4,4 0,2.209 -1.791,4 -4,4 z"
   id="path110"
   inkscape:connector-curvature="0" />
	</g>
</g>
<g
   id="g120"
   transform="translate(0,-456)">
	<g
   id="g118">
		<path
   d="m 300,360 c -6.627,0 -12,5.373 -12,12 0,6.627 5.373,12 12,12 6.627,0 12,-5.373 12,-12 0,-6.627 -5.372,-12 -12,-12 z m 0,16 c -2.209,0 -4,-1.791 -4,-4 0,-2.209 1.791,-4 4,-4 2.209,0 4,1.791 4,4 0,2.209 -1.791,4 -4,4 z"
   id="path116"
   inkscape:connector-curvature="0" />
	</g>
</g>
<g
   id="g126"
   transform="translate(0,-456)">
	<g
   id="g124">
		<path
   d="m 300,416 c -6.627,0 -12,5.373 -12,12 0,6.627 5.373,12 12,12 6.627,0 12,-5.373 12,-12 0,-6.627 -5.372,-12 -12,-12 z m 0,16 c -2.209,0 -4,-1.791 -4,-4 0,-2.209 1.791,-4 4,-4 2.209,0 4,1.791 4,4 0,2.209 -1.791,4 -4,4 z"
   id="path122"
   inkscape:connector-curvature="0" />
	</g>
</g>
<g
   id="g132"
   transform="translate(0,-456)">
	<g
   id="g130">
		<path
   d="m 340,272 c -6.627,0 -12,5.373 -12,12 0,6.627 5.373,12 12,12 6.627,0 12,-5.373 12,-12 0,-6.627 -5.372,-12 -12,-12 z m 0,16 c -2.209,0 -4,-1.791 -4,-4 0,-2.209 1.791,-4 4,-4 2.209,0 4,1.791 4,4 0,2.209 -1.791,4 -4,4 z"
   id="path128"
   inkscape:connector-curvature="0" />
	</g>
</g>
<g
   id="g138"
   transform="translate(0,-456)">
	<g
   id="g136">
		<path
   d="m 340,328 c -6.627,0 -12,5.373 -12,12 0,6.627 5.373,12 12,12 6.627,0 12,-5.373 12,-12 0,-6.627 -5.372,-12 -12,-12 z m 0,16 c -2.209,0 -4,-1.791 -4,-4 0,-2.209 1.791,-4 4,-4 2.209,0 4,1.791 4,4 0,2.209 -1.791,4 -4,4 z"
   id="path134"
   inkscape:connector-curvature="0" />
	</g>
</g>
<g
   id="g144"
   transform="translate(0,-456)">
	<g
   id="g142">
		<path
   d="m 340,384 c -6.627,0 -12,5.373 -12,12 0,6.627 5.373,12 12,12 6.627,0 12,-5.373 12,-12 0,-6.627 -5.372,-12 -12,-12 z m 0,16 c -2.209,0 -4,-1.791 -4,-4 0,-2.209 1.791,-4 4,-4 2.209,0 4,1.791 4,4 0,2.209 -1.791,4 -4,4 z"
   id="path140"
   inkscape:connector-curvature="0" />
	</g>
</g>
<g
   id="g150"
   transform="translate(0,-456)">
	<g
   id="g148">
		<path
   d="m 380,304 c -6.627,0 -12,5.373 -12,12 0,6.627 5.373,12 12,12 6.627,0 12,-5.373 12,-12 0,-6.627 -5.372,-12 -12,-12 z m 0,16 c -2.209,0 -4,-1.791 -4,-4 0,-2.209 1.791,-4 4,-4 2.209,0 4,1.791 4,4 0,2.209 -1.791,4 -4,4 z"
   id="path146"
   inkscape:connector-curvature="0" />
	</g>
</g>
<g
   id="g156"
   transform="translate(0,-456)">
	<g
   id="g154">
		<path
   d="m 380,360 c -6.627,0 -12,5.373 -12,12 0,6.627 5.373,12 12,12 6.627,0 12,-5.373 12,-12 0,-6.627 -5.372,-12 -12,-12 z m 0,16 c -2.209,0 -4,-1.791 -4,-4 0,-2.209 1.791,-4 4,-4 2.209,0 4,1.791 4,4 0,2.209 -1.791,4 -4,4 z"
   id="path152"
   inkscape:connector-curvature="0" />
	</g>
</g>
<g
   id="g162"
   transform="translate(0,-456)">
	<g
   id="g160">
		<path
   d="m 380,416 c -6.627,0 -12,5.373 -12,12 0,6.627 5.373,12 12,12 6.627,0 12,-5.373 12,-12 0,-6.627 -5.372,-12 -12,-12 z m 0,16 c -2.209,0 -4,-1.791 -4,-4 0,-2.209 1.791,-4 4,-4 2.209,0 4,1.791 4,4 0,2.209 -1.791,4 -4,4 z"
   id="path158"
   inkscape:connector-curvature="0" />
	</g>
</g>
<g
   id="g168"
   transform="translate(0,-456)">
	<g
   id="g166">
		<path
   d="m 420,272 c -6.627,0 -12,5.373 -12,12 0,6.627 5.373,12 12,12 6.627,0 12,-5.373 12,-12 0,-6.627 -5.372,-12 -12,-12 z m 0,16 c -2.209,0 -4,-1.791 -4,-4 0,-2.209 1.791,-4 4,-4 2.209,0 4,1.791 4,4 0,2.209 -1.791,4 -4,4 z"
   id="path164"
   inkscape:connector-curvature="0" />
	</g>
</g>
<g
   id="g174"
   transform="translate(0,-456)">
	<g
   id="g172">
		<path
   d="m 420,216.001 c -6.627,0 -12,5.373 -12,12 0,6.627 5.373,12 12,12 6.627,0 12,-5.373 12,-12 0,-6.627 -5.372,-12 -12,-12 z m 0,16 c -2.209,0 -4,-1.791 -4,-4 0,-2.209 1.791,-4 4,-4 2.209,0 4,1.791 4,4 0,2.209 -1.791,4 -4,4 z"
   id="path170"
   inkscape:connector-curvature="0" />
	</g>
</g>
<g
   id="g180"
   transform="translate(0,-456)">
	<g
   id="g178">
		<path
   d="m 420,328 c -6.627,0 -12,5.373 -12,12 0,6.627 5.373,12 12,12 6.627,0 12,-5.373 12,-12 0,-6.627 -5.372,-12 -12,-12 z m 0,16 c -2.209,0 -4,-1.791 -4,-4 0,-2.209 1.791,-4 4,-4 2.209,0 4,1.791 4,4 0,2.209 -1.791,4 -4,4 z"
   id="path176"
   inkscape:connector-curvature="0" />
	</g>
</g>
<g
   id="g186"
   transform="translate(0,-456)">
	<g
   id="g184">
		<path
   d="m 420,384 c -6.627,0 -12,5.373 -12,12 0,6.627 5.373,12 12,12 6.627,0 12,-5.373 12,-12 0,-6.627 -5.372,-12 -12,-12 z m 0,16 c -2.209,0 -4,-1.791 -4,-4 0,-2.209 1.791,-4 4,-4 2.209,0 4,1.791 4,4 0,2.209 -1.791,4 -4,4 z"
   id="path182"
   inkscape:connector-curvature="0" />
	</g>
</g>
<g
   id="g192"
   transform="translate(0,-456)">
	<g
   id="g190">
		<path
   d="m 380,248.001 c -6.627,0 -12,5.373 -12,12 0,6.627 5.373,12 12,12 6.627,0 12,-5.373 12,-12 0,-6.628 -5.372,-12 -12,-12 z M 380,264 c -2.209,0 -4,-1.791 -4,-4 0,-2.209 1.791,-4 4,-4 2.209,0 4,1.791 4,4 0,2.209 -1.791,4 -4,4 z"
   id="path188"
   inkscape:connector-curvature="0" />
	</g>
</g>
<g
   id="g194"
   transform="translate(0,-456)">
</g>
<g
   id="g196"
   transform="translate(0,-456)">
</g>
<g
   id="g198"
   transform="translate(0,-456)">
</g>
<g
   id="g200"
   transform="translate(0,-456)">
</g>
<g
   id="g202"
   transform="translate(0,-456)">
</g>
<g
   id="g204"
   transform="translate(0,-456)">
</g>
<g
   id="g206"
   transform="translate(0,-456)">
</g>
<g
   id="g208"
   transform="translate(0,-456)">
</g>
<g
   id="g210"
   transform="translate(0,-456)">
</g>
<g
   id="g212"
   transform="translate(0,-456)">
</g>
<g
   id="g214"
   transform="translate(0,-456)">
</g>
<g
   id="g216"
   transform="translate(0,-456)">
</g>
<g
   id="g218"
   transform="translate(0,-456)">
</g>
<g
   id="g220"
   transform="translate(0,-456)">
</g>
<g
   id="g222"
   transform="translate(0,-456)">
</g>
</svg>